<?xml version="1.0" encoding="UTF-8"?>
<svg width="310px" height="323px" viewBox="0 0 310 323" version="1.1" xmlns="http://www.w3.org/2000/svg" xmlns:xlink="http://www.w3.org/1999/xlink">
    <!-- Generator: Sketch 46.2 (44496) - http://www.bohemiancoding.com/sketch -->
    <title>Logo</title>
    <desc>Created with Sketch.</desc>
    <defs></defs>
    <g id="Page-1" stroke="none" stroke-width="1" fill="none" fill-rule="evenodd">
        <g id="Logo">
            <g id="Speech" transform="translate(277.087072, 191.136690) rotate(-10.000000) translate(-277.087072, -191.136690) translate(237.073639, 153.636690)" fill="#1DE1FF">
                <g id="Rectangle-Copy-5" transform="translate(0.474048, 0.860737)">
                    <path d="M24.6181608,1.49372033 C13.6491445,3.40413272 13.6482011,6.59570303 24.6181608,8.50627973 C35.9584394,10.4813527 59.1662987,10.4639447 70.4066257,8.50627973 C81.1877358,6.62859382 81.2669808,3.38520783 70.4066257,1.49372033 C58.9712988,-0.497906775 36.0534876,-0.497906775 24.6181608,1.49372033 Z" id="Shape"></path>
                    <path d="M15.0319795,24.3446531 C4.06296324,26.2550655 4.06201981,29.4466358 15.0319795,31.3572125 C26.3722582,33.3322855 49.5801174,33.3148775 60.8204444,31.3572125 C71.6015546,29.4795266 71.6807995,26.2361406 60.8204444,24.3446531 C49.3851176,22.353026 26.4673064,22.353026 15.0319795,24.3446531 Z" id="Shape-Copy" transform="translate(37.870442, 27.841465) rotate(25.000000) translate(-37.870442, -27.841465) "></path>
                    <path d="M0.963564651,42.4842522 C-10.0054516,44.3946646 -10.0063951,47.5862349 0.963564651,49.4968116 C12.3038433,51.4718846 35.5117025,51.4544766 46.7520295,49.4968116 C57.5331397,47.6191257 57.6123846,44.3757397 46.7520295,42.4842522 C35.3167027,40.4926251 12.3988915,40.4926251 0.963564651,42.4842522 Z" id="Shape-Copy-3" transform="translate(23.802027, 45.981064) rotate(50.000000) translate(-23.802027, -45.981064) "></path>
                </g>
            </g>
            <path d="M262.865828,282.523824 C265.288108,181.558981 91.9784583,264.274298 91.9784583,164.274298 C91.9784583,64.2742983 262.295246,165.699606 262.865828,47.7933555 C263.436409,-70.1128945 0,53.8173484 0,164.274298 C0,274.731248 260.443548,383.488668 262.865828,282.523824 Z" id="Oval" fill="#EB4040" fill-rule="nonzero"></path>
        </g>
    </g>
</svg>