<?xml version="1.0" encoding="UTF-8"?>
<svg width="323px" height="323px" viewBox="0 0 323 323" version="1.1" xmlns="http://www.w3.org/2000/svg" xmlns:xlink="http://www.w3.org/1999/xlink">
    <!-- Generator: Sketch 46.2 (44496) - http://www.bohemiancoding.com/sketch -->
    <title>Logo</title>
    <desc>Created with Sketch.</desc>
    <defs></defs>
    <g id="Page-1" stroke="none" stroke-width="1" fill="none" fill-rule="evenodd">
        <g id="Logo">
            <g id="Speech" transform="translate(256.303835, 115.000000)">
                <g id="Rectangle-Copy-5" transform="translate(33.057359, 20.921812) rotate(-25.000000) translate(-33.057359, -20.921812) translate(0.185677, 14.921812)">
                    <g id="path-1-link" fill="#0F716B">
                        <path d="M9.03420693,1.5308619 C20.9442364,-0.4691381 44.7642954,-0.4691381 56.6743249,1.5308619 C68.5843544,3.5308619 68.278969,7.5821439 56.6743249,9.5308619 C45.0696808,11.4795798 20.9479152,11.5314796 9.03420693,9.5308619 C-2.87950137,7.5302441 -2.87582257,3.5308619 9.03420693,1.5308619 Z" id="path-1"></path>
                    </g>
                    <path d="M9.10947379,2.0245822 C-2.26706015,3.9349946 -2.26803863,7.1265649 9.10947379,9.0371416 C20.8710631,11.0122146 44.9411338,10.9948066 56.5990581,9.0371416 C67.7807049,7.1594557 67.8628939,3.9160697 56.5990581,2.0245822 C44.7388894,0.0329551 20.9696425,0.0329551 9.10947379,2.0245822 Z" id="Shape" stroke="#0F8597"></path>
                </g>
                <g id="Rectangle-Copy-8" transform="translate(0.952802, 40.000000)">
                    <g id="path-2-link" fill="#0F716B">
                        <path d="M8.93390172,1.5 C20.8439312,-0.5 44.6639902,-0.5 56.5740197,1.5 C68.4840492,3.5 68.1786638,7.5512821 56.5740197,9.5 C44.9693756,11.4487179 20.8476101,11.5006178 8.93390172,9.5 C-2.97980657,7.4993822 -2.97612777,3.5 8.93390172,1.5 Z" id="path-2"></path>
                    </g>
                    <path d="M9.00916859,1.9937203 C-2.36736535,3.9041327 -2.36834383,7.095703 9.00916859,9.0062797 C20.7707579,10.9813528 44.8408286,10.9639447 56.4987529,9.0062797 C67.6803997,7.1285938 67.7625887,3.8852078 56.4987529,1.9937203 C44.6385842,0.0020932 20.8693373,0.0020932 9.00916859,1.9937203 Z" id="Shape" stroke="#0F8597"></path>
                </g>
                <g id="Rectangle-Copy-6" transform="translate(33.057359, 72.078188) rotate(25.000000) translate(-33.057359, -72.078188) translate(0.185677, 66.078188)">
                    <g id="path-3-link" fill="#0F716B">
                        <path d="M9.03420693,2.4880733 C20.9442364,0.4880733 44.7642954,0.4880733 56.6743249,2.4880733 C68.5843544,4.4880733 68.278969,8.5393554 56.6743249,10.4880733 C45.0696808,12.4367912 20.9479152,12.4886911 9.03420693,10.4880733 C-2.87950137,8.4874555 -2.87582257,4.4880733 9.03420693,2.4880733 Z" id="path-3"></path>
                    </g>
                    <path d="M9.10947379,2.9817936 C-2.26706015,4.892206 -2.26803863,8.0837763 9.10947379,9.994353 C20.8710631,11.9694261 44.9411338,11.952018 56.5990581,9.994353 C67.7807049,8.1166671 67.8628939,4.8732811 56.5990581,2.9817936 C44.7388894,0.9901665 20.9696425,0.9901665 9.10947379,2.9817936 Z" id="Shape" stroke="#0F8597"></path>
                </g>
            </g>
            <path d="M272.631741,282.523824 C275.144013,181.558981 95.3956146,264.274298 95.3956146,164.274298 C95.3956146,64.2742983 272.039961,165.699606 272.631741,47.7933555 C273.22352,-70.1128945 0,53.8173484 0,164.274298 C0,274.731248 270.119469,383.488668 272.631741,282.523824 Z" id="Oval" fill="#791B1B" fill-rule="nonzero"></path>
        </g>
    </g>
</svg>